# xmcd CD database file
#
# Track frame offsets:
#	150
#	12205
#	23555
#	34095
#	50142
#	63290
#	82917
#	100602
#	110035
#	122325
#	135247
#	156315
#	171937
#	185880
#	203940
#	224150
#	239715
#	257047
#	268672
#	281590
#	295227
#	310935
#	337442
#
# Disc length: 4704 seconds
#
# Revision: 7
# Processed by: cddbd v1.5.2PL0 Copyright (c) Steve Scherf et al.
# Submitted via: CDex 1.51
#
DISCID=62125e17
DTITLE=Willie Nelson - Willie Nelson's Greatest Hits (& Some That Will Be)
DYEAR=2003
DGENRE=Country
TTITLE0=Railroad Lady
TTITLE1=Heartaches Of A Fool
TTITLE2=Blue Eyes Crying In The Rain
TTITLE3=Whiskey River (Live)
TTITLE4=Good Hearted Woman
TTITLE5=Georgia On My Mind
TTITLE6=All Of Me
TTITLE7=If You've Got The Money, I've Got The Time
TTITLE8=Look What Thoughts Will Do
TTITLE9=Remember Me
TTITLE10=Uncloudy Day
TTITLE11=Mamas Don't Let Your Babies Grow Up To Be Cowboys
TTITLE12=My Heroes Have Always Been Cowboys
TTITLE13=Help Me Make It Through The Night
TTITLE14=Angel Flying Too Close To The Ground
TTITLE15=I'd Have To Be Crazy
TTITLE16=Faded Love (w/Ray Price)
TTITLE17=On The Road Again
TTITLE18=Midnight Rider
TTITLE19=Heartbreak Hotel (w/Leon Russell)
TTITLE20=If You Could Touch Her At All
TTITLE21=Till I Gain Control Again (Live)
TTITLE22=Stay A Little Longer (Live)
EXTD=Nelson, Willie - Willie Nelson's Greatest Hits (And Some That Will Be) YEAR: 2003
EXTT0=
EXTT1=
EXTT2=
EXTT3=
EXTT4=
EXTT5=
EXTT6=
EXTT7=
EXTT8=
EXTT9=
EXTT10=
EXTT11=
EXTT12=
EXTT13=
EXTT14=
EXTT15=
EXTT16=
EXTT17=
EXTT18=
EXTT19=
EXTT20=
EXTT21=
EXTT22=
PLAYORDER=
